<svg width="84" height="84" viewBox="0 0 84 84" fill="none" xmlns="http://www.w3.org/2000/svg">
<g filter="url(#filter0_b_231_13519)">
<rect x="1" y="1" width="82" height="82" rx="41" fill="white" fill-opacity="0.4"/>
<rect x="1" y="1" width="82" height="82" rx="41" stroke="url(#paint0_linear_231_13519)"/>
<mask id="mask0_231_13519" style="mask-type:luminance" maskUnits="userSpaceOnUse" x="29" y="39" width="30" height="26">
<path d="M29.1914 39.1738H58.3207V64.9988H29.1914V39.1738Z" fill="white"/>
</mask>
<g mask="url(#mask0_231_13519)">
<path d="M57.2554 39.502C56.8435 39.502 56.5044 39.8388 56.5044 40.2529V60.5047C56.5044 62.1614 55.1618 63.5041 53.505 63.5041H34.002C32.3453 63.5041 31.0026 62.1614 31.0026 60.5047V52.2529C31.0026 51.841 30.6658 51.5041 30.2516 51.5041C29.8397 51.5041 29.5029 51.841 29.5029 52.2529V60.5047C29.5029 62.9875 31.5192 65.0038 34.002 65.0038H53.505C55.9879 65.0038 58.0064 62.9875 58.0064 60.5047V40.2529C58.0064 39.8388 57.6673 39.502 57.2554 39.502Z" fill="white"/>
</g>
<mask id="mask1_231_13519" style="mask-type:luminance" maskUnits="userSpaceOnUse" x="29" y="20" width="30" height="10">
<path d="M29.1904 20H58.3198V29.2759H29.1904V20Z" fill="white"/>
</mask>
<g mask="url(#mask1_231_13519)">
<path d="M30.2507 26.0011C30.6649 26.0011 31.0017 25.6643 31.0017 25.2524V24.5014C31.0017 22.8447 32.3443 21.502 34.0011 21.502H37.9927L38.9303 23.8346C39.2739 24.6971 40.0932 25.2524 41.0217 25.2524H46.4903C47.4142 25.2524 48.238 24.6971 48.5839 23.8346L49.5215 21.502H53.5109C55.1699 21.502 56.5126 22.8447 56.5126 24.5014V28.2518C56.5126 28.6637 56.8494 29.0028 57.2613 29.0028C57.6755 29.0028 58.0123 28.6637 58.0123 28.2518V24.5014C58.0123 22.0186 55.9937 20 53.5109 20H34.0102C31.5274 20 29.5088 22.0186 29.5088 24.5014V25.2524C29.5088 25.6643 29.8456 26.0011 30.2598 26.0011H30.2507ZM47.8944 21.502L47.1798 23.2793C47.0683 23.5638 46.7907 23.7504 46.4834 23.7504H41.0149C40.7076 23.7504 40.43 23.5638 40.3185 23.2793L39.6039 21.502H47.8944Z" fill="white"/>
</g>
<path d="M30.2504 39.5047C32.3213 39.5047 34.0008 37.8252 34.0008 35.7543C34.0008 33.6834 32.3213 32.0039 30.2504 32.0039C28.1818 32.0039 26.5 33.6834 26.5 35.7543C26.5 37.8252 28.1818 39.5047 30.2504 39.5047ZM30.2504 33.5036C31.4884 33.5036 32.5011 34.5163 32.5011 35.7543C32.5011 36.9923 31.4884 38.005 30.2504 38.005C29.0147 38.005 28.002 36.9923 28.002 35.7543C28.002 34.5163 29.0147 33.5036 30.2504 33.5036Z" fill="white"/>
<mask id="mask2_231_13519" style="mask-type:luminance" maskUnits="userSpaceOnUse" x="19" y="26" width="24" height="25">
<path d="M19 26.9473H42.0076V50.2507H19V26.9473Z" fill="white"/>
</mask>
<g mask="url(#mask2_231_13519)">
<path d="M22.4591 46.8587C24.4845 48.809 27.2222 50.0083 30.2512 50.0083C33.2825 50.0083 36.0202 48.8021 38.0456 46.8587C38.0752 46.8359 38.1047 46.8063 38.1343 46.7767C40.2121 44.7354 41.5115 41.893 41.5115 38.7571C41.5115 32.5557 36.4617 27.5059 30.2603 27.5059C24.0567 27.5059 19 32.5557 19 38.7571C19 41.893 20.2994 44.7354 22.3772 46.7767C22.4068 46.8063 22.4295 46.8291 22.4659 46.8587H22.4591ZM23.7563 46.0121L24.0043 45.1792C24.4845 43.5816 25.925 42.5006 27.5886 42.5006H32.9002C34.566 42.5006 36.0042 43.5748 36.4844 45.1792L36.7325 46.003C35.0075 47.5482 32.734 48.5017 30.2375 48.5017C27.7388 48.5017 25.4744 47.5482 23.7403 46.003L23.7563 46.0121ZM30.2512 29.0078C35.631 29.0078 40.0027 33.3795 40.0027 38.7571C40.0027 41.0169 39.2221 43.0946 37.9318 44.7513C37.2582 42.5166 35.2464 41.0078 32.907 41.0078H27.5977C25.2651 41.0078 23.2465 42.5166 22.5706 44.7513C21.2735 43.0946 20.502 41.0237 20.502 38.7571C20.502 33.3795 24.8737 29.0078 30.2512 29.0078Z" fill="white"/>
</g>
<path d="M50.5048 51.5039H37.0029C36.5888 51.5039 36.252 51.8407 36.252 52.2526C36.252 52.6668 36.5888 53.0036 37.0029 53.0036H50.5048C50.9168 53.0036 51.2536 52.6668 51.2536 52.2526C51.2536 51.8407 50.9168 51.5039 50.5048 51.5039Z" fill="white"/>
<path d="M37.0029 56.7575H43.7528C44.1647 56.7575 44.5037 56.4207 44.5037 56.0065C44.5037 55.5946 44.1647 55.2578 43.7528 55.2578H37.0029C36.5888 55.2578 36.252 55.5946 36.252 56.0065C36.252 56.4207 36.5888 56.7575 37.0029 56.7575Z" fill="white"/>
<path d="M37.0029 60.5056H50.5048C50.9168 60.5056 51.2536 60.1688 51.2536 59.7546C51.2536 59.3427 50.9168 59.0059 50.5048 59.0059H37.0029C36.5888 59.0059 36.252 59.3427 36.252 59.7546C36.252 60.1688 36.5888 60.5056 37.0029 60.5056Z" fill="white"/>
<mask id="mask3_231_13519" style="mask-type:luminance" maskUnits="userSpaceOnUse" x="45" y="30" width="20" height="9">
<path d="M45.5029 30.4453H64.0046V38.0189H45.5029V30.4453Z" fill="white"/>
</mask>
<g mask="url(#mask3_231_13519)">
<path d="M60.2545 30.5059H49.7543C47.6834 30.5059 46.0039 32.1853 46.0039 34.2563C46.0039 36.3272 47.6834 38.0067 49.7543 38.0067H60.2545C62.3254 38.0067 64.0049 36.3272 64.0049 34.2563C64.0049 32.1853 62.3254 30.5059 60.2545 30.5059ZM60.2545 36.507H49.7543C48.5163 36.507 47.5036 35.4943 47.5036 34.2563C47.5036 33.0183 48.5163 32.0056 49.7543 32.0056H60.2545C61.4925 32.0056 62.5052 33.0183 62.5052 34.2563C62.5052 35.4943 61.4925 36.507 60.2545 36.507Z" fill="white"/>
</g>
</g>
<defs>
<filter id="filter0_b_231_13519" x="-19.5" y="-19.5" width="123" height="123" filterUnits="userSpaceOnUse" color-interpolation-filters="sRGB">
<feFlood flood-opacity="0" result="BackgroundImageFix"/>
<feGaussianBlur in="BackgroundImageFix" stdDeviation="10"/>
<feComposite in2="SourceAlpha" operator="in" result="effect1_backgroundBlur_231_13519"/>
<feBlend mode="normal" in="SourceGraphic" in2="effect1_backgroundBlur_231_13519" result="shape"/>
</filter>
<linearGradient id="paint0_linear_231_13519" x1="1.68066" y1="1" x2="83.6807" y2="83" gradientUnits="userSpaceOnUse">
<stop offset="0.138693" stop-color="white"/>
<stop offset="0.414413" stop-color="white" stop-opacity="0"/>
</linearGradient>
</defs>
</svg>
